# xmcd
#
# Track frame offsets:
#	150
#	8802
#	27763
#	50437
#	66441
#	80734
#	100638
#	117347
#	135922
#	152580
#	168032
#	187380
#
# Disc length: 2699 seconds
#
# Revision: 1
# Processed by: cddbd v1.5.1PL0 Copyright (c) Steve Scherf et al.
# Submitted via: CDex 1.50Beta5
#
DISCID=940a890c
DTITLE=伊藤多賀之 - ハト以上ヤマバト未満
DYEAR=1900
DGENRE=Pop
TTITLE0=ハトの落としもの
TTITLE1=取り調べ室
TTITLE2=スペアキー
TTITLE3=ロンリネスキャット
TTITLE4=魚
TTITLE5=たまご
TTITLE6=かぜ薬
TTITLE7=小さな傷跡
TTITLE8=ユニットバス
TTITLE9=病院
TTITLE10=ヤマバト
TTITLE11=ねこまんま
EXTD=
EXTT0=
EXTT1=
EXTT2=
EXTT3=
EXTT4=
EXTT5=
EXTT6=
EXTT7=
EXTT8=
EXTT9=
EXTT10=
EXTT11=
PLAYORDER=
